<?xml version="1.0" encoding="UTF-8" standalone="no"?>
<!-- Created with Inkscape (http://www.inkscape.org/) -->

<svg
   xmlns:dc="http://purl.org/dc/elements/1.1/"
   xmlns:cc="http://creativecommons.org/ns#"
   xmlns:rdf="http://www.w3.org/1999/02/22-rdf-syntax-ns#"
   xmlns:svg="http://www.w3.org/2000/svg"
   xmlns="http://www.w3.org/2000/svg"
   xmlns:sodipodi="http://sodipodi.sourceforge.net/DTD/sodipodi-0.dtd"
   xmlns:inkscape="http://www.inkscape.org/namespaces/inkscape"
   width="210mm"
   height="297mm"
   viewBox="0 0 744.09448819 1052.3622047"
   id="svg3359"
   version="1.1"
   inkscape:version="0.91 r13725"
   sodipodi:docname="text.svg">
  <defs
     id="defs3361" />
  <sodipodi:namedview
     id="base"
     pagecolor="#ffffff"
     bordercolor="#666666"
     borderopacity="1.0"
     inkscape:pageopacity="0.0"
     inkscape:pageshadow="2"
     inkscape:zoom="1.4"
     inkscape:cx="268.6073"
     inkscape:cy="866.11667"
     inkscape:document-units="px"
     inkscape:current-layer="layer1"
     showgrid="false"
     inkscape:window-width="1536"
     inkscape:window-height="803"
     inkscape:window-x="-8"
     inkscape:window-y="-8"
     inkscape:window-maximized="1" />
  <metadata
     id="metadata3364">
    <rdf:RDF>
      <cc:Work
         rdf:about="">
        <dc:format>image/svg+xml</dc:format>
        <dc:type
           rdf:resource="http://purl.org/dc/dcmitype/StillImage" />
        <dc:title></dc:title>
      </cc:Work>
    </rdf:RDF>
  </metadata>
  <g
     inkscape:label="Layer 1"
     inkscape:groupmode="layer"
     id="layer1">
    <g
       style="font-style:normal;font-weight:normal;font-size:80px;line-height:125%;font-family:sans-serif;letter-spacing:0px;word-spacing:0px;fill:#000080;fill-opacity:1;stroke:none;stroke-width:1px;stroke-linecap:butt;stroke-linejoin:miter;stroke-opacity:1"
       id="flowRoot3375"
       transform="matrix(0.33532575,0,0,0.49302368,-4.5801513,-11.933524)">
      <path
         d="m 51.574219,48.786486 q 0,3.867187 -1.367188,7.1875 -1.328125,3.28125 -3.75,5.703125 -3.007812,3.007812 -7.109375,4.53125 -4.101562,1.484375 -10.351562,1.484375 l -7.734375,0 0,21.679687 -7.734375,0 0,-58.164062 15.78125,0 q 5.234375,0 8.867187,0.898437 3.632813,0.859375 6.445313,2.734375 3.320312,2.226563 5.117187,5.546875 1.835938,3.320313 1.835938,8.398438 z m -8.046875,0.195312 q 0,-3.007812 -1.054688,-5.234375 -1.054687,-2.226562 -3.203125,-3.632812 -1.875,-1.210938 -4.296875,-1.71875 -2.382812,-0.546875 -6.054687,-0.546875 l -7.65625,0 0,23.242187 6.523437,0 q 4.6875,0 7.617188,-0.820312 2.929687,-0.859375 4.765625,-2.695313 1.835937,-1.875 2.578125,-3.945312 0.78125,-2.070313 0.78125,-4.648438 z"
         id="path3393"
         inkscape:connector-curvature="0"
         style="fill:#000080" />
      <path
         d="m 97.707031,89.372423 -7.34375,0 0,-24.84375 q 0,-3.007812 -0.351562,-5.625 -0.351563,-2.65625 -1.289063,-4.140625 -0.976562,-1.640625 -2.8125,-2.421875 -1.835937,-0.820312 -4.765625,-0.820312 -3.007812,0 -6.289062,1.484375 -3.28125,1.484375 -6.289063,3.789062 l 0,32.578125 -7.34375,0 0,-60.78125 7.34375,0 0,21.992188 q 3.4375,-2.851563 7.109375,-4.453125 3.671875,-1.601563 7.539063,-1.601563 7.070312,0 10.78125,4.257813 3.710937,4.257812 3.710937,12.265625 l 0,28.320312 z"
         id="path3395"
         inkscape:connector-curvature="0"
         style="fill:#000080" />
      <path
         d="m 149.03516,67.575548 q 0,10.664063 -5.46875,16.835938 -5.46875,6.171875 -14.64844,6.171875 -9.25781,0 -14.72656,-6.171875 -5.42969,-6.171875 -5.42969,-16.835938 0,-10.664062 5.42969,-16.835937 5.46875,-6.210938 14.72656,-6.210938 9.17969,0 14.64844,6.210938 5.46875,6.171875 5.46875,16.835937 z m -7.57813,0 q 0,-8.476562 -3.32031,-12.578125 -3.32031,-4.140625 -9.21875,-4.140625 -5.97656,0 -9.29688,4.140625 -3.28125,4.101563 -3.28125,12.578125 0,8.203125 3.32032,12.460938 3.32031,4.21875 9.25781,4.21875 5.85937,0 9.17969,-4.179688 3.35937,-4.21875 3.35937,-12.5 z"
         id="path3397"
         inkscape:connector-curvature="0"
         style="fill:#000080" />
      <path
         d="m 183.09766,88.981798 q -2.07032,0.546875 -4.53125,0.898438 -2.42188,0.351562 -4.33594,0.351562 -6.67969,0 -10.15625,-3.59375 -3.47656,-3.59375 -3.47656,-11.523437 l 0,-23.203125 -4.96094,0 0,-6.171875 4.96094,0 0,-12.539063 7.34375,0 0,12.539063 15.15625,0 0,6.171875 -15.15625,0 0,19.882812 q 0,3.4375 0.15625,5.390625 0.15625,1.914063 1.09375,3.59375 0.85937,1.5625 2.34375,2.304688 1.52343,0.703125 4.60937,0.703125 1.79688,0 3.75,-0.507813 1.95313,-0.546875 2.8125,-0.898437 l 0.39063,0 0,6.601562 z"
         id="path3399"
         inkscape:connector-curvature="0"
         style="fill:#000080" />
      <path
         d="m 229.19141,67.575548 q 0,10.664063 -5.46875,16.835938 -5.46875,6.171875 -14.64844,6.171875 -9.25781,0 -14.72656,-6.171875 -5.42969,-6.171875 -5.42969,-16.835938 0,-10.664062 5.42969,-16.835937 5.46875,-6.210938 14.72656,-6.210938 9.17969,0 14.64844,6.210938 5.46875,6.171875 5.46875,16.835937 z m -7.57813,0 q 0,-8.476562 -3.32031,-12.578125 -3.32031,-4.140625 -9.21875,-4.140625 -5.97656,0 -9.29688,4.140625 -3.28125,4.101563 -3.28125,12.578125 0,8.203125 3.32032,12.460938 3.32031,4.21875 9.25781,4.21875 5.85937,0 9.17969,-4.179688 3.35937,-4.21875 3.35937,-12.5 z"
         id="path3401"
         inkscape:connector-curvature="0"
         style="fill:#000080" />
      <path
         d="m 314.23047,85.153673 q -2.14844,0.9375 -3.90625,1.757813 -1.71875,0.820312 -4.53125,1.71875 -2.38281,0.742187 -5.19531,1.25 -2.77344,0.546875 -6.13282,0.546875 -6.32812,0 -11.52343,-1.757813 -5.15625,-1.796875 -8.98438,-5.585937 -3.75,-3.710938 -5.85937,-9.414063 -2.10938,-5.742187 -2.10938,-13.320312 0,-7.1875 2.03125,-12.851563 2.03125,-5.664062 5.85938,-9.570312 3.71093,-3.789063 8.94531,-5.78125 5.27344,-1.992188 11.67969,-1.992188 4.6875,0 9.33593,1.132813 4.6875,1.132812 10.39063,3.984375 l 0,9.179687 -0.58594,0 q -4.80469,-4.023437 -9.53125,-5.859375 -4.72656,-1.835937 -10.11719,-1.835937 -4.41406,0 -7.96875,1.445312 -3.51562,1.40625 -6.28906,4.414063 -2.69531,2.929687 -4.21875,7.421875 -1.48437,4.453125 -1.48437,10.3125 0,6.132812 1.64062,10.546875 1.67969,4.414062 4.29688,7.1875 2.73437,2.890625 6.36718,4.296875 3.67188,1.367187 7.73438,1.367187 5.58594,0 10.46875,-1.914062 4.88281,-1.914063 9.14062,-5.742188 l 0.54688,0 0,9.0625 z"
         id="path3403"
         inkscape:connector-curvature="0"
         style="fill:#000080" />
      <path
         d="m 360.83203,89.372423 -7.34375,0 0,-4.84375 q -3.71094,2.929688 -7.10937,4.492188 -3.39844,1.5625 -7.5,1.5625 -6.875,0 -10.70313,-4.179688 -3.82812,-4.21875 -3.82812,-12.34375 l 0,-28.320312 7.34375,0 0,24.84375 q 0,3.320312 0.3125,5.703125 0.3125,2.34375 1.32812,4.023437 1.05469,1.71875 2.73438,2.5 1.67968,0.78125 4.88281,0.78125 2.85156,0 6.21094,-1.484375 3.39843,-1.484375 6.32812,-3.789062 l 0,-32.578125 7.34375,0 0,43.632812 z"
         id="path3405"
         inkscape:connector-curvature="0"
         style="fill:#000080" />
      <path
         d="m 413.68359,67.223986 q 0,5.46875 -1.5625,9.84375 -1.52343,4.375 -4.14062,7.34375 -2.77344,3.085937 -6.09375,4.648437 -3.32031,1.523438 -7.30469,1.523438 -3.71094,0 -6.48437,-0.898438 -2.77344,-0.859375 -5.46875,-2.34375 l -0.46875,2.03125 -6.875,0 0,-60.78125 7.34375,0 0,21.71875 q 3.08593,-2.539062 6.5625,-4.140625 3.47656,-1.640625 7.8125,-1.640625 7.73437,0 12.1875,5.9375 4.49218,5.9375 4.49218,16.757813 z m -7.57812,0.195312 q 0,-7.8125 -2.57813,-11.835937 -2.57812,-4.0625 -8.32031,-4.0625 -3.20312,0 -6.48437,1.40625 -3.28125,1.367187 -6.09375,3.554687 l 0,25 q 3.125,1.40625 5.35156,1.953125 2.26562,0.546875 5.11719,0.546875 6.09375,0 9.53125,-3.984375 3.47656,-4.023437 3.47656,-12.578125 z"
         id="path3407"
         inkscape:connector-curvature="0"
         style="fill:#000080" />
      <path
         d="m 461.65234,68.317736 -32.14843,0 q 0,4.023437 1.21093,7.03125 1.21094,2.96875 3.32032,4.882812 2.03125,1.875 4.80468,2.8125 2.8125,0.9375 6.17188,0.9375 4.45312,0 8.94531,-1.757812 4.53125,-1.796875 6.44531,-3.515625 l 0.39063,0 0,8.007812 q -3.71094,1.5625 -7.57813,2.617188 -3.86718,1.054687 -8.125,1.054687 -10.85937,0 -16.95312,-5.859375 -6.09375,-5.898437 -6.09375,-16.71875 0,-10.703125 5.82031,-16.992187 5.85938,-6.289063 15.39063,-6.289063 8.82812,0 13.59375,5.15625 4.80468,5.15625 4.80468,14.648438 l 0,3.984375 z m -7.14843,-5.625 q -0.0391,-5.78125 -2.92969,-8.945313 -2.85156,-3.164062 -8.71094,-3.164062 -5.89844,0 -9.41406,3.476562 -3.47656,3.476563 -3.94531,8.632813 l 25,0 z"
         id="path3409"
         inkscape:connector-curvature="0"
         style="fill:#000080" />
    </g>
    <g
       style="font-style:normal;font-weight:normal;font-size:40px;line-height:125%;font-family:sans-serif;letter-spacing:0px;word-spacing:0px;fill:#000000;fill-opacity:1;stroke:none;stroke-width:1px;stroke-linecap:butt;stroke-linejoin:miter;stroke-opacity:1"
       id="flowRoot3383" />
  </g>
</svg>
